<?xml version="1.0" encoding="UTF-8" standalone="no"?>
<svg
   xmlns:dc="http://purl.org/dc/elements/1.1/"
   xmlns:cc="http://creativecommons.org/ns#"
   xmlns:rdf="http://www.w3.org/1999/02/22-rdf-syntax-ns#"
   xmlns:svg="http://www.w3.org/2000/svg"
   xmlns="http://www.w3.org/2000/svg"
   xmlns:sodipodi="http://sodipodi.sourceforge.net/DTD/sodipodi-0.dtd"
   xmlns:inkscape="http://www.inkscape.org/namespaces/inkscape"
   width="20cm"
   height="20cm"
   viewBox="0 0 200 200"
   version="1.1"
   id="svg8"
   sodipodi:docname="logo.svg"
   inkscape:export-filename="/home/roman/Documents/personal/graph-explorer/logo192.png"
   inkscape:export-xdpi="24.383999"
   inkscape:export-ydpi="24.383999"
   inkscape:version="1.0.1 (0767f8302a, 2020-10-17)">
  <defs
     id="defs2" />
  <sodipodi:namedview
     id="base"
     pagecolor="#ffffff"
     bordercolor="#666666"
     borderopacity="1.0"
     inkscape:pageopacity="0.0"
     inkscape:pageshadow="2"
     inkscape:zoom="0.98994949"
     inkscape:cx="332.38408"
     inkscape:cy="512.65267"
     inkscape:document-units="mm"
     inkscape:current-layer="layer1"
     inkscape:document-rotation="0"
     showgrid="false"
     units="cm"
     inkscape:window-width="2560"
     inkscape:window-height="1379"
     inkscape:window-x="0"
     inkscape:window-y="25"
     inkscape:window-maximized="1" />
  <metadata
     id="metadata5">
    <rdf:RDF>
      <cc:Work
         rdf:about="">
        <dc:format>image/svg+xml</dc:format>
        <dc:type
           rdf:resource="http://purl.org/dc/dcmitype/StillImage" />
        <dc:title></dc:title>
      </cc:Work>
    </rdf:RDF>
  </metadata>
  <g
     inkscape:label="Layer 1"
     inkscape:groupmode="layer"
     id="layer1">
    <g
       id="g1314">
      <ellipse
         style="fill:#000000;fill-opacity:1;stroke:#000000;stroke-width:4.35815;stroke-miterlimit:4;stroke-dasharray:none;stroke-opacity:1"
         id="path843"
         cx="72.931061"
         cy="125.79751"
         rx="66.369888"
         ry="64.602119" />
      <ellipse
         style="fill:#000000;fill-opacity:1;stroke:#000000;stroke-width:3.5082;stroke-miterlimit:4;stroke-dasharray:none;stroke-opacity:1"
         id="path845"
         cx="157.25064"
         cy="35.369461"
         rx="28.145674"
         ry="29.001938" />
      <circle
         style="fill:#000000;fill-opacity:1;stroke:#000000;stroke-width:3.42825;stroke-miterlimit:4;stroke-dasharray:none;stroke-opacity:1"
         id="path847"
         r="14.452672"
         cy="152.67072"
         cx="174.10471" />
      <path
         id="path869"
         style="fill:#000000;fill-opacity:0;stroke:#000000;stroke-width:18.89763804;stroke-miterlimit:4;stroke-dasharray:none;stroke-opacity:1"
         transform="scale(0.26458333)"
         d="m 513.75781,222.39844 c -15.22958,11.35502 -28.75239,24.85028 -40.18554,40.0625 -7.1717,10.30463 -12.68841,17.70848 -18.86329,28.64648 -0.77786,1.3779 -1.5271,2.77226 -2.25586,4.17774 0.94598,0.7223 1.70145,1.79084 2.46876,2.64062 0.88116,0.89781 1.79881,1.75922 2.6875,2.65039 0.50215,0.50887 0.38297,0.38931 0.96093,0.97071 0.25712,0.25858 0.42697,0.44281 0.60157,0.63671 2.27687,-5.71742 4.88317,-11.30133 7.85742,-16.6582 6.34673,-11.43111 11.04255,-17.54472 18.55273,-28.28906 3.73327,-4.5281 7.25619,-9.23734 11.19922,-13.58399 6.20262,-6.83754 12.9414,-13.19667 20.08398,-19.0625 -1.05747,-0.7063 -2.10098,-1.42649 -3.10742,-2.1914 z m -58.84179,79.0664 c -0.10871,2e-4 -0.1124,0.0198 0.0527,0.0684 0.70798,0.20799 1.44566,0.28951 2.18164,0.37891 -0.0417,-0.0811 -0.0759,-0.16798 -0.11914,-0.24805 -0.51582,-0.0329 -1.78912,-0.19981 -2.11523,-0.19922 z" />
      <path
         id="path873"
         style="fill:#000000;fill-opacity:0;stroke:#000000;stroke-width:18.89763804;stroke-miterlimit:4;stroke-dasharray:none;stroke-opacity:1"
         transform="scale(0.26458333)"
         d="m 517.91406,547.6582 c -0.31879,0.48051 -0.63218,0.9647 -0.95898,1.43946 -0.0205,0.0952 -0.0433,0.20297 -0.0645,0.29492 -0.56821,1.62611 -1.27763,2.88682 -2.35351,4.12695 -0.0262,0.25145 -0.0543,0.50205 -0.0937,0.75195 -0.0909,0.57614 -0.59961,1.72909 -1.09375,2.74024 0.045,0.11541 0.0804,0.23893 0.11719,0.36133 15.95769,5.31098 32.10685,10.05102 48.375,14.32226 8.38484,2.20146 16.82599,4.18908 25.23828,6.28321 23.94383,5.9199 48.21915,10.16864 72.62109,13.57226 0.0776,-0.96132 0.15134,-1.92289 0.0898,-2.81445 -0.0897,-2.5934 -0.19158,-3.84052 0.82617,-5.80664 -21.373,-2.91415 -42.62255,-6.67103 -63.60938,-11.79883 -8.37184,-2.10758 -16.77767,-4.08481 -25.11523,-6.32422 -18.22061,-4.89394 -36.34425,-10.39645 -53.97852,-17.14844 z m -3.16797,4.5625 c -0.0397,0.0547 -0.0794,0.1094 -0.11914,0.16407 -0.007,0.11332 -0.0158,0.22664 -0.0234,0.33984 0.13675,0.003 0.1533,-0.0132 0.14257,-0.50391 z m 147.46875,36.66602 c -0.0509,0.10803 -0.1111,0.22612 -0.13672,0.30273 -5.4e-4,0.002 5.4e-4,0.006 0,0.008 0.0435,-0.0815 0.0874,-0.16267 0.13086,-0.24415 0.001,-0.0191 0.005,-0.0479 0.006,-0.0664 z" />
      <path
         id="path881"
         style="fill:#000000;fill-opacity:0;stroke:#000000;stroke-width:18.89763804;stroke-miterlimit:4;stroke-dasharray:none;stroke-opacity:1"
         transform="scale(0.26458333)"
         d="m 580.36328,239.72461 c 0.11192,0.66426 0.23726,1.32589 0.4043,1.97851 0.0922,0.36078 0.50783,-0.78013 0.28711,-1.08007 -0.23759,-0.32292 -0.46534,-0.61199 -0.69141,-0.89844 z m 8.4707,5.38477 c -0.60119,0.1812 -1.20574,0.34799 -1.82617,0.43359 -0.54285,0.0749 -1.09202,-0.10988 -1.63476,-0.18555 -0.25142,-0.0351 -0.4987,-0.0909 -0.74805,-0.13867 -0.0387,0.004 -0.0395,0.005 -0.1875,0.0176 -2.00375,0.10703 -4.01381,0.042 -6.01953,0.0371 -0.35039,0.002 -0.59645,0.002 -0.89063,0.004 -0.50819,9.9108 -0.81573,16.76272 0.69532,28.6211 1.64556,12.91307 5.67992,25.72553 12.57812,36.80859 2.0338,3.26762 4.51821,6.2316 6.77734,9.34766 7.78326,8.06648 8.56515,9.46796 17.61719,16.39843 14.98039,11.46943 31.89972,20.06553 47.99805,29.7793 10.98916,6.70311 15.18047,9.07672 25.67187,16.16797 8.54533,5.77587 18.88528,12.54019 25.44336,20.71875 1.17615,1.46676 1.95561,3.21267 2.9336,4.81836 0.59384,1.57633 1.32075,3.10823 1.78125,4.72852 2.77353,9.75855 0.89038,20.06809 -1.20703,29.73242 -0.69086,2.65134 -1.29875,5.32473 -2.07227,7.95312 -4.74259,16.11496 -11.95079,31.41197 -19.35742,46.43555 -4.67887,8.94773 -9.45302,17.82058 -14.41406,26.61523 -1.1624,2.0606 -5.94513,10.38976 -7.14063,12.76954 -0.80338,1.59919 -1.45269,3.27088 -2.17969,4.90624 -0.484,1.51915 -1.10881,2.9999 -1.45312,4.55665 -0.89002,4.0237 -0.39815,8.03759 0.88672,11.83007 3.05801,-1.15514 3.13514,-1.15029 4.59765,-0.59961 0.10922,-0.0201 0.27738,-0.0406 0.36133,-0.043 0.0397,0.0168 0.13012,0.052 0.17969,0.0723 0.58053,-0.0694 1.17217,-0.30318 1.77148,-0.56445 1.55174,-1.61381 3.23044,-2.97511 4.53907,-3 0.3105,-0.006 0.60161,0.0642 0.86328,0.22265 1.03762,0.6282 2.07188,1.47977 2.92773,2.44336 0.0519,-0.0309 0.10519,-0.0685 0.15625,-0.0957 -0.2115,-0.37166 -0.42614,-0.73957 -0.63476,-1.11523 -2.47129,-4.83961 -3.80963,-10.26547 -2.4668,-15.67578 0.36057,-1.45255 0.99083,-2.82407 1.48633,-4.23633 0.72408,-1.57973 1.38596,-3.19029 2.17187,-4.74024 1.00381,-1.97971 6.0463,-10.93536 6.92969,-12.53515 4.83662,-8.75895 9.46265,-17.61699 14.05859,-26.50391 7.37798,-15.14147 14.67343,-30.53934 19.47071,-46.73828 0.78878,-2.66362 1.40114,-5.37814 2.10156,-8.06641 2.24368,-9.90376 4.13825,-20.46921 1.23633,-30.47461 -0.49142,-1.69432 -1.26043,-3.2956 -1.89063,-4.94336 -1.04424,-1.67353 -1.86943,-3.50462 -3.13281,-5.01953 -6.63557,-7.95658 -18.03905,-15.10315 -26.54688,-20.72461 -12.02089,-7.94271 -13.27256,-8.50072 -25.93164,-16.09765 -15.99401,-9.73756 -32.78021,-18.40713 -47.65039,-29.89063 -9.01277,-6.96009 -9.61551,-8.1758 -17.35742,-16.25 -2.21809,-3.06619 -4.65474,-5.98629 -6.65429,-9.19922 -6.76668,-10.87243 -10.85188,-23.48183 -12.625,-36.1289 -1.34128,-9.56659 -1.44884,-15.45426 -1.2129,-22.45117 z m 88.39063,311.78515 c -0.14875,0.0178 -0.29606,0.015 -0.44336,0.008 0.33215,0.12468 0.77249,0.27483 1.29883,0.44141 0.0236,-0.0267 0.0466,-0.0534 0.0703,-0.0801 -0.3347,-0.13232 -0.67069,-0.26475 -0.92578,-0.36914 z m -0.44336,0.008 c -0.0288,-0.0108 -0.0699,-0.0267 -0.0977,-0.0371 -0.0819,0.0151 -0.13479,0.031 -0.0723,0.0391 0.0562,0.007 0.11347,-0.005 0.16992,-0.002 z" />
    </g>
    <path
       style="fill:#ffffff;fill-opacity:1;stroke:#ffffff;stroke-width:2.965;stroke-miterlimit:4;stroke-dasharray:none;stroke-opacity:1"
       id="path1192"
       d="m 59.678189,68.291635 c -9.475872,4.77829 -18.433457,10.420421 -27.502408,15.981013 -0.721085,0.442129 -1.308703,1.075457 -1.911951,1.668364 -0.69886,0.686882 -1.325631,1.443456 -1.988447,2.165184 -2.184061,2.6148 -4.259259,5.330832 -6.058532,8.227954 -0.554445,0.892741 -1.099865,1.793854 -1.573445,2.731997 -1.101027,2.181093 -1.31716,3.140573 -2.060406,5.432633 -0.883051,3.79831 -1.572494,7.76141 -0.932888,11.66014 0.09215,0.56171 0.256477,1.10916 0.384715,1.66375 0.607588,1.35295 0.693903,1.7079 1.511881,2.91685 0.268391,0.39668 0.584303,0.75904 0.876456,1.13855 0,0 22.030356,-13.27314 22.030356,-13.27314 v 0 c -0.923271,-0.93241 -1.560996,-1.64093 -1.99177,-2.92736 -0.126584,-0.43979 -0.281403,-0.87242 -0.379756,-1.31936 -0.753549,-3.42444 -0.240001,-6.972326 0.748196,-10.288912 0.292304,-0.813144 0.543825,-1.642123 0.876909,-2.439432 2.032474,-4.865169 5.303565,-9.112697 9.038241,-12.788069 0.798388,-0.692512 1.571013,-1.415894 2.395164,-2.07754 0.702347,-0.563864 2.969003,-2.031063 2.180437,-1.595869 -6.56091,3.620834 -13.013709,7.434218 -19.514378,11.162123 -0.468099,0.268438 0.938326,-0.533591 1.416502,-0.783633 0.3659,-0.191333 0.739907,-0.366982 1.114809,-0.540009 0.23776,-0.109733 0.48178,-0.205354 0.722669,-0.308033 0,0 20.617646,-16.407201 20.617646,-16.407201 z" />
    <path
       style="fill:#ffffff;fill-opacity:1;stroke:#ffffff;stroke-width:2.965;stroke-miterlimit:4;stroke-dasharray:none;stroke-opacity:1"
       id="path1194"
       d="m 138.72033,18.955826 c -0.9887,0.871877 -1.72288,2.033478 -2.14462,3.283606 -0.30525,0.904833 -0.58798,2.521919 -0.76898,3.449969 -0.30773,1.906918 -0.22097,3.831492 -0.0583,5.744845 0,0 11.46662,-6.006888 11.46662,-6.006888 v 0 c -0.25409,-1.747697 -0.34838,-3.496679 0.006,-5.244831 0.13596,-0.547154 0.23148,-1.105975 0.40788,-1.641464 0.61583,-1.869485 1.73343,-3.41195 3.38496,-4.484663 0,0 -12.29394,4.899426 -12.29394,4.899426 z" />
    <path
       style="fill:#ffffff;fill-opacity:1;stroke:#fafafa;stroke-width:2.965;stroke-miterlimit:4;stroke-dasharray:none;stroke-opacity:1"
       id="path1306"
       d="m 167.81059,143.54986 c -0.967,0.85417 -1.87664,1.81683 -2.52727,2.93981 -0.47949,0.82759 -0.54408,1.10834 -0.88272,2.0015 -0.3111,1.06257 -0.70372,2.21587 -0.52531,3.34453 0.0282,0.17873 0.10325,0.34685 0.15488,0.52028 0,0 4.62297,-2.52383 4.62297,-2.52383 v 0 c -0.33629,-1.17516 0.0598,-2.38963 0.43803,-3.50959 0.13883,-0.32674 0.25935,-0.66189 0.41649,-0.98023 0.73374,-1.48636 1.87752,-2.73757 3.19928,-3.722 0,0 -4.89635,1.92953 -4.89635,1.92953 z" />
  </g>
</svg>
